<svg width="173" height="49" viewBox="0 0 173 49" fill="none" xmlns="http://www.w3.org/2000/svg">
<path d="M70.608 15.152V18.44H66.144V32H62.04V18.44H57.576V15.152H70.608ZM76.7717 20.84C77.2517 20.104 77.8517 19.528 78.5717 19.112C79.2917 18.68 80.0917 18.464 80.9717 18.464V22.808H79.8437C78.8197 22.808 78.0517 23.032 77.5397 23.48C77.0277 23.912 76.7717 24.68 76.7717 25.784V32H72.6677V18.608H76.7717V20.84ZM82.1173 25.28C82.1173 23.904 82.3733 22.696 82.8853 21.656C83.4133 20.616 84.1253 19.816 85.0213 19.256C85.9173 18.696 86.9173 18.416 88.0213 18.416C88.9653 18.416 89.7893 18.608 90.4933 18.992C91.2133 19.376 91.7653 19.88 92.1493 20.504V18.608H96.2533V32H92.1493V30.104C91.7493 30.728 91.1893 31.232 90.4693 31.616C89.7653 32 88.9413 32.192 87.9973 32.192C86.9093 32.192 85.9173 31.912 85.0213 31.352C84.1253 30.776 83.4133 29.968 82.8853 28.928C82.3733 27.872 82.1173 26.656 82.1173 25.28ZM92.1493 25.304C92.1493 24.28 91.8613 23.472 91.2853 22.88C90.7253 22.288 90.0373 21.992 89.2213 21.992C88.4053 21.992 87.7093 22.288 87.1333 22.88C86.5733 23.456 86.2933 24.256 86.2933 25.28C86.2933 26.304 86.5733 27.12 87.1333 27.728C87.7093 28.32 88.4053 28.616 89.2213 28.616C90.0373 28.616 90.7253 28.32 91.2853 27.728C91.8613 27.136 92.1493 26.328 92.1493 25.304ZM105.942 22.016H103.734V32H99.6304V22.016H98.1424V18.608H99.6304V18.224C99.6304 16.576 100.102 15.328 101.046 14.48C101.99 13.616 103.374 13.184 105.198 13.184C105.502 13.184 105.726 13.192 105.87 13.208V16.688C105.086 16.64 104.534 16.752 104.214 17.024C103.894 17.296 103.734 17.784 103.734 18.488V18.608H105.942V22.016ZM107.055 25.28C107.055 23.904 107.311 22.696 107.823 21.656C108.351 20.616 109.063 19.816 109.959 19.256C110.855 18.696 111.855 18.416 112.959 18.416C113.903 18.416 114.727 18.608 115.431 18.992C116.151 19.376 116.703 19.88 117.087 20.504V18.608H121.191V32H117.087V30.104C116.687 30.728 116.127 31.232 115.407 31.616C114.703 32 113.879 32.192 112.935 32.192C111.847 32.192 110.855 31.912 109.959 31.352C109.063 30.776 108.351 29.968 107.823 28.928C107.311 27.872 107.055 26.656 107.055 25.28ZM117.087 25.304C117.087 24.28 116.799 23.472 116.223 22.88C115.663 22.288 114.975 21.992 114.159 21.992C113.343 21.992 112.647 22.288 112.071 22.88C111.511 23.456 111.231 24.256 111.231 25.28C111.231 26.304 111.511 27.12 112.071 27.728C112.647 28.32 113.343 28.616 114.159 28.616C114.975 28.616 115.663 28.32 116.223 27.728C116.799 27.136 117.087 26.328 117.087 25.304ZM128.264 14.24V32H124.16V14.24H128.264ZM136.326 18.416C137.27 18.416 138.094 18.608 138.798 18.992C139.518 19.376 140.07 19.88 140.454 20.504V18.608H144.558V31.976C144.558 33.208 144.31 34.32 143.814 35.312C143.334 36.32 142.59 37.12 141.582 37.712C140.59 38.304 139.35 38.6 137.862 38.6C135.878 38.6 134.27 38.128 133.038 37.184C131.806 36.256 131.102 34.992 130.926 33.392H134.982C135.11 33.904 135.414 34.304 135.894 34.592C136.374 34.896 136.966 35.048 137.67 35.048C138.518 35.048 139.19 34.8 139.686 34.304C140.198 33.824 140.454 33.048 140.454 31.976V30.08C140.054 30.704 139.502 31.216 138.798 31.616C138.094 32 137.27 32.192 136.326 32.192C135.222 32.192 134.222 31.912 133.326 31.352C132.43 30.776 131.718 29.968 131.19 28.928C130.678 27.872 130.422 26.656 130.422 25.28C130.422 23.904 130.678 22.696 131.19 21.656C131.718 20.616 132.43 19.816 133.326 19.256C134.222 18.696 135.222 18.416 136.326 18.416ZM140.454 25.304C140.454 24.28 140.166 23.472 139.59 22.88C139.03 22.288 138.342 21.992 137.526 21.992C136.71 21.992 136.014 22.288 135.438 22.88C134.878 23.456 134.598 24.256 134.598 25.28C134.598 26.304 134.878 27.12 135.438 27.728C136.014 28.32 136.71 28.616 137.526 28.616C138.342 28.616 139.03 28.32 139.59 27.728C140.166 27.136 140.454 26.328 140.454 25.304ZM146.711 25.28C146.711 23.904 146.967 22.696 147.479 21.656C148.007 20.616 148.719 19.816 149.615 19.256C150.511 18.696 151.511 18.416 152.615 18.416C153.559 18.416 154.383 18.608 155.087 18.992C155.807 19.376 156.359 19.88 156.743 20.504V18.608H160.847V32H156.743V30.104C156.343 30.728 155.783 31.232 155.063 31.616C154.359 32 153.535 32.192 152.591 32.192C151.503 32.192 150.511 31.912 149.615 31.352C148.719 30.776 148.007 29.968 147.479 28.928C146.967 27.872 146.711 26.656 146.711 25.28ZM156.743 25.304C156.743 24.28 156.455 23.472 155.879 22.88C155.319 22.288 154.631 21.992 153.815 21.992C152.999 21.992 152.303 22.288 151.727 22.88C151.167 23.456 150.887 24.256 150.887 25.28C150.887 26.304 151.167 27.12 151.727 27.728C152.303 28.32 152.999 28.616 153.815 28.616C154.631 28.616 155.319 28.32 155.879 27.728C156.455 27.136 156.743 26.328 156.743 25.304ZM167.92 20.84C168.4 20.104 169 19.528 169.72 19.112C170.44 18.68 171.24 18.464 172.12 18.464V22.808H170.992C169.968 22.808 169.2 23.032 168.688 23.48C168.176 23.912 167.92 24.68 167.92 25.784V32H163.816V18.608H167.92V20.84Z" fill="#233348"/>
<g filter="url(#filter0_d_0_1248)">
<circle cx="24.5" cy="20.5" r="20.5" fill="#458FF6"/>
<circle cx="24.5" cy="20.5" r="20" stroke="black"/>
</g>
<path d="M31.742 15.748V19.31H26.906V34H22.46V19.31H17.624V15.748H31.742Z" fill="white"/>
<defs>
<filter id="filter0_d_0_1248" x="0" y="0" width="49" height="49" filterUnits="userSpaceOnUse" color-interpolation-filters="sRGB">
<feFlood flood-opacity="0" result="BackgroundImageFix"/>
<feColorMatrix in="SourceAlpha" type="matrix" values="0 0 0 0 0 0 0 0 0 0 0 0 0 0 0 0 0 0 127 0" result="hardAlpha"/>
<feOffset dy="4"/>
<feGaussianBlur stdDeviation="2"/>
<feComposite in2="hardAlpha" operator="out"/>
<feColorMatrix type="matrix" values="0 0 0 0 0 0 0 0 0 0 0 0 0 0 0 0 0 0 0.25 0"/>
<feBlend mode="normal" in2="BackgroundImageFix" result="effect1_dropShadow_0_1248"/>
<feBlend mode="normal" in="SourceGraphic" in2="effect1_dropShadow_0_1248" result="shape"/>
</filter>
</defs>
</svg>
